<svg width="24" height="24" viewBox="0 0 24 24" fill="none" xmlns="http://www.w3.org/2000/svg">
<path d="M2 12C2 11.1025 2.11551 10.233 2.33182 9.40195C2.91193 9.43208 3.48919 9.30312 3.99976 9.02933C4.51034 8.75554 4.93435 8.34757 5.22493 7.85053C5.5155 7.3535 5.66133 6.78674 5.64628 6.21293C5.63123 5.63912 5.4559 5.08059 5.13966 4.59909C6.40911 3.36498 7.97563 2.47053 9.69163 2C9.95519 2.51201 10.357 2.94197 10.8526 3.24228C11.3481 3.5426 11.9181 3.70155 12.4995 3.70155C13.0808 3.70155 13.6508 3.5426 14.1464 3.24228C14.642 2.94197 15.0438 2.51201 15.3073 2C17.0233 2.47053 18.5898 3.36498 19.8593 4.59909C19.5427 5.08067 19.3671 5.63942 19.3519 6.21349C19.3368 6.78757 19.4826 7.3546 19.7734 7.85185C20.0641 8.3491 20.4884 8.75718 20.9993 9.03093C21.5102 9.30469 22.0878 9.43346 22.6682 9.40299C22.8845 10.233 23 11.1025 23 12C23 12.8975 22.8845 13.767 22.6682 14.598C22.088 14.5677 21.5106 14.6965 20.9999 14.9702C20.4891 15.2439 20.0649 15.6519 19.7742 16.149C19.4835 16.646 19.3376 17.2129 19.3526 17.7868C19.3676 18.3607 19.543 18.9193 19.8593 19.4009C18.5898 20.635 17.0233 21.5295 15.3073 22C15.0438 21.488 14.642 21.058 14.1464 20.7577C13.6508 20.4574 13.0808 20.2984 12.4995 20.2984C11.9181 20.2984 11.3481 20.4574 10.8526 20.7577C10.357 21.058 9.95519 21.488 9.69163 22C7.97563 21.5295 6.40911 20.635 5.13966 19.4009C5.45625 18.9193 5.63185 18.3606 5.64701 17.7865C5.66217 17.2124 5.51631 16.6454 5.22556 16.1482C4.93482 15.6509 4.51052 15.2428 3.99962 14.9691C3.48872 14.6953 2.91113 14.5665 2.33077 14.597C2.11551 13.768 2 12.8985 2 12ZM7.04445 15.1127C7.70599 16.2447 7.89499 17.5468 7.63668 18.769C8.0651 19.0699 8.52083 19.3304 8.9986 19.5472C9.96115 18.6952 11.2082 18.2245 12.5005 18.2254C13.8236 18.2254 15.0606 18.714 16.0024 19.5472C16.4802 19.3304 16.9359 19.0699 17.3644 18.769C17.0992 17.5198 17.3101 16.2178 17.9566 15.1127C18.602 14.007 19.6378 13.1757 20.8652 12.7782C20.9138 12.2605 20.9138 11.7395 20.8652 11.2218C19.6374 10.8245 18.6012 9.99317 17.9555 8.88732C17.309 7.78225 17.0981 6.48022 17.3633 5.23096C16.935 4.92999 16.479 4.66945 16.0014 4.45279C15.0391 5.30456 13.7924 5.77527 12.5005 5.77464C11.2082 5.77553 9.96115 5.3048 8.9986 4.45279C8.52096 4.66946 8.06499 4.92999 7.63668 5.23096C7.90189 6.48022 7.691 7.78225 7.04445 8.88732C6.39906 9.99297 5.3633 10.8243 4.13581 11.2218C4.08725 11.7395 4.08725 12.2605 4.13581 12.7782C5.36369 13.1755 6.39986 14.0068 7.0455 15.1127H7.04445ZM12.5005 15.1127C11.6651 15.1127 10.8638 14.7847 10.273 14.201C9.68226 13.6173 9.35037 12.8255 9.35037 12C9.35037 11.1745 9.68226 10.3827 10.273 9.799C10.8638 9.21526 11.6651 8.88732 12.5005 8.88732C13.336 8.88732 14.1373 9.21526 14.728 9.799C15.3188 10.3827 15.6507 11.1745 15.6507 12C15.6507 12.8255 15.3188 13.6173 14.728 14.201C14.1373 14.7847 13.336 15.1127 12.5005 15.1127ZM12.5005 13.0376C12.779 13.0376 13.0461 12.9282 13.243 12.7337C13.4399 12.5391 13.5506 12.2752 13.5506 12C13.5506 11.7248 13.4399 11.4609 13.243 11.2663C13.0461 11.0718 12.779 10.9624 12.5005 10.9624C12.222 10.9624 11.9549 11.0718 11.758 11.2663C11.5611 11.4609 11.4505 11.7248 11.4505 12C11.4505 12.2752 11.5611 12.5391 11.758 12.7337C11.9549 12.9282 12.222 13.0376 12.5005 13.0376Z" fill="#021226"/>
</svg>
