<svg width="24" height="24" viewBox="0 0 24 24" fill="none" xmlns="http://www.w3.org/2000/svg">
    <path d="M17.6569 16.1421L12 22L6.34311 16.1421C5.2243 14.9835 4.46239 13.5074 4.15371 11.9004C3.84504 10.2934 4.00347 8.62774 4.60898 7.11399C5.21448 5.60025 6.23986 4.30643 7.55545 3.39614C8.87104 2.48586 10.4178 2 12 2C13.5822 2 15.129 2.48586 16.4445 3.39614C17.7601 4.30643 18.7855 5.60025 19.391 7.11399C19.9965 8.62774 20.155 10.2934 19.8463 11.9004C19.5376 13.5074 18.7757 14.9835 17.6569 16.1421V16.1421ZM12 12.1251C12.4715 12.1251 12.9237 11.9312 13.2571 11.5859C13.5905 11.2407 13.7778 10.7724 13.7778 10.2842C13.7778 9.79595 13.5905 9.3277 13.2571 8.98245C12.9237 8.63721 12.4715 8.44325 12 8.44325C11.5285 8.44325 11.0763 8.63721 10.7429 8.98245C10.4095 9.3277 10.2222 9.79595 10.2222 10.2842C10.2222 10.7724 10.4095 11.2407 10.7429 11.5859C11.0763 11.9312 11.5285 12.1251 12 12.1251Z"
          fill="#000000"/>
</svg>
