<svg width="32" height="32" viewBox="0 0 32 32" fill="none" xmlns="http://www.w3.org/2000/svg">
<circle cx="16" cy="16" r="15" fill="white" stroke="#F6F7FB" stroke-width="2"/>
<path d="M9.68332 23.1495C9.56771 23.1493 9.4534 23.1251 9.34766 23.0783C9.24193 23.0315 9.14708 22.9633 9.06916 22.8779C8.98982 22.7932 8.92929 22.6927 8.89152 22.583C8.85374 22.4732 8.83959 22.3568 8.84999 22.2412L9.05416 19.9962L18.4858 10.5679L21.4333 13.5145L12.0042 22.942L9.75916 23.1462C9.73395 23.1485 9.70864 23.1496 9.68332 23.1495ZM22.0217 12.9254L19.075 9.9787L20.8425 8.2112C20.9199 8.13372 21.0118 8.07226 21.113 8.03032C21.2141 7.98838 21.3226 7.9668 21.4321 7.9668C21.5416 7.9668 21.65 7.98838 21.7512 8.03032C21.8524 8.07226 21.9443 8.13372 22.0217 8.2112L23.7892 9.9787C23.8666 10.0561 23.9281 10.148 23.97 10.2492C24.012 10.3503 24.0336 10.4588 24.0336 10.5683C24.0336 10.6778 24.012 10.7862 23.97 10.8874C23.9281 10.9886 23.8666 11.0805 23.7892 11.1579L22.0225 12.9245L22.0217 12.9254Z" fill="#015ADC"/>
</svg>
