<svg width="24" height="24" viewBox="0 0 24 24" fill="none" xmlns="http://www.w3.org/2000/svg">
<path d="M8.14286 10.7143V8.14286H15.8571V10.7143H8.14286ZM21 6.21429C21 5.3618 20.6614 4.54424 20.0586 3.94144C19.4558 3.33865 18.6382 3 17.7857 3H6.21429C5.3618 3 4.54424 3.33865 3.94144 3.94144C3.33865 4.54424 3 5.3618 3 6.21429V17.7857C3 18.6382 3.33865 19.4558 3.94144 20.0586C4.54424 20.6614 5.3618 21 6.21429 21H17.7857C18.6382 21 19.4558 20.6614 20.0586 20.0586C20.6614 19.4558 21 18.6382 21 17.7857V6.21429ZM7.5 6.85714H16.5C16.6705 6.85714 16.834 6.92487 16.9546 7.04543C17.0751 7.16599 17.1429 7.3295 17.1429 7.5V11.3571C17.1429 11.5276 17.0751 11.6912 16.9546 11.8117C16.834 11.9323 16.6705 12 16.5 12H7.5C7.3295 12 7.16599 11.9323 7.04543 11.8117C6.92487 11.6912 6.85714 11.5276 6.85714 11.3571V7.5C6.85714 7.3295 6.92487 7.16599 7.04543 7.04543C7.16599 6.92487 7.3295 6.85714 7.5 6.85714V6.85714Z" fill="#015ADC"/>
</svg>
