<svg width="231" height="148" viewBox="0 0 231 148" fill="none" xmlns="http://www.w3.org/2000/svg">
<path d="M30.9922 9.81211H34.8008L34.3556 11.1089H30.547L26.8613 21.8434H25.2871L32.5595 0.662576H34.1337L30.9922 9.81211ZM11.2972 16.296C13.777 16.296 15.9195 16.268 17.7245 16.212L18.582 13.7145C17.7124 13.6344 17.001 13.4263 16.4478 13.0901C15.8946 12.7539 15.5309 12.3096 15.3566 11.7573C15.1823 11.2049 15.2175 10.5726 15.4621 9.86013C15.7314 9.07566 16.1836 8.38724 16.8186 7.79489C17.4537 7.20253 18.2197 6.74625 19.1167 6.42606C20.0223 6.10587 20.9955 5.94577 22.0365 5.94577C23.0691 5.94577 23.924 6.10587 24.6011 6.42606C25.2868 6.74625 25.7479 7.20253 25.9847 7.79489C26.2298 8.38724 26.2177 9.07566 25.9484 9.86013C25.7065 10.5646 25.3046 11.1929 24.7425 11.7453C24.189 12.2976 23.5188 12.7459 22.732 13.0901C21.9479 13.4263 21.0978 13.6344 20.1816 13.7145L19.3447 16.1519C21.8095 16.0479 24.014 15.8638 25.9582 15.5996L25.6811 16.7763C23.3794 17.1205 21.0455 17.3487 18.6795 17.4607C16.3163 17.5648 13.806 17.6168 11.1484 17.6168L11.2972 16.296ZM16.1388 3.30417H22.1564L23.0634 0.662576H24.663L23.756 3.30417H29.7228L29.2858 4.57694H15.7018L16.1388 3.30417ZM16.9601 9.86013C16.7815 10.3804 16.7744 10.8447 16.9389 11.253C17.1146 11.6532 17.4476 11.9654 17.9377 12.1895C18.4305 12.4057 19.0465 12.5097 19.7855 12.5017C20.5107 12.5097 21.1938 12.4057 21.8351 12.1895C22.4791 11.9654 23.0264 11.6532 23.477 11.253C23.9303 10.8447 24.2463 10.3804 24.425 9.86013C24.6064 9.33181 24.6106 8.86353 24.4376 8.45529C24.2674 8.03903 23.9372 7.71884 23.4471 7.4947C22.9597 7.26256 22.3521 7.14649 21.6243 7.14649C20.8879 7.14649 20.1964 7.26256 19.5496 7.4947C18.9056 7.71884 18.3556 8.03903 17.8995 8.45529C17.4546 8.86353 17.1415 9.33181 16.9601 9.86013ZM49.4629 3.64038C49.133 4.60096 49.2273 5.50951 49.7458 6.36602C50.2669 7.21454 51.0506 7.92697 52.0969 8.50331C53.1516 9.07966 54.2694 9.45989 55.4503 9.644L54.4287 10.8447C53.3605 10.6526 52.3518 10.3244 51.4025 9.86013C50.4532 9.39585 49.6566 8.81951 49.0128 8.13109C48.3717 7.43467 47.9824 6.6582 47.8448 5.80168C47.1218 6.65019 46.2007 7.42266 45.0813 8.11908C43.9705 8.8155 42.781 9.39585 41.5128 9.86013C40.2532 10.3244 39.0318 10.6526 37.8486 10.8447L37.6261 9.644C38.9165 9.45989 40.2828 9.07966 41.7248 8.50331C43.1668 7.92697 44.4398 7.21454 45.5436 6.36602C46.6587 5.50951 47.3811 4.60096 47.7109 3.64038L47.8263 3.30417H40.4631L40.8918 2.05542H57.345L56.9162 3.30417H49.5783L49.4629 3.64038ZM35.2346 12.8379H55.6486L55.2034 14.1347H45.7327L43.0941 21.8194H41.5453L44.1838 14.1347H34.7893L35.2346 12.8379ZM76.0294 11.9734H68.9962L67.0008 17.7849H76.5223L76.0771 19.0817H55.5614L56.0067 17.7849H65.4012L67.3966 11.9734H60.6935L63.9669 2.43965H79.0744L78.6373 3.71242H65.1295L62.7219 10.7247H76.4582L76.0294 11.9734ZM106.754 13.1501H86.3149L86.7436 11.9014H107.183L106.754 13.1501ZM87.8085 15.4555H103.271L101.078 21.8434H99.4531L101.218 16.7043H87.3797L87.8085 15.4555ZM93.1639 1.26294H108.246L107.825 2.48768H94.3684L93.5851 4.76906H106.407L105.987 5.9938H93.1646L92.3235 8.44328H105.882L105.462 9.66802H90.278L93.1639 1.26294ZM119.06 4.74504C118.736 5.68961 118.669 6.58616 118.86 7.43467C119.06 8.28318 119.471 9.03163 120.095 9.68003C120.722 10.3204 121.513 10.8127 122.47 11.1569L121.279 12.3336C120.127 11.9174 119.208 11.289 118.524 10.4485C117.839 9.60798 117.451 8.63139 117.359 7.51872C116.465 8.76747 115.343 9.86414 113.995 10.8087C112.655 11.7533 111.222 12.4617 109.698 12.934L109.306 11.7093C110.51 11.357 111.67 10.8367 112.787 10.1483C113.906 9.45189 114.879 8.6394 115.706 7.71084C116.541 6.78227 117.14 5.80168 117.503 4.76906L117.924 3.54432H112.642L113.079 2.27155H125.114L124.677 3.54432H119.472L119.06 4.74504ZM110.141 17.929C110.413 17.1365 110.939 16.4561 111.718 15.8878C112.497 15.3194 113.487 14.8872 114.689 14.591C115.894 14.2868 117.258 14.1347 118.781 14.1347C120.296 14.1347 121.548 14.2868 122.535 14.591C123.534 14.8872 124.227 15.3194 124.616 15.8878C125.005 16.4561 125.063 17.1365 124.791 17.929C124.514 18.7375 123.984 19.4299 123.202 20.0063C122.42 20.5826 121.432 21.0189 120.239 21.3151C119.043 21.6192 117.683 21.7713 116.159 21.7713C114.636 21.7713 113.376 21.6192 112.381 21.3151C111.382 21.0189 110.69 20.5826 110.304 20.0063C109.917 19.4299 109.863 18.7375 110.141 17.929ZM111.715 17.929C111.531 18.4653 111.604 18.9296 111.935 19.3219C112.266 19.7141 112.827 20.0143 113.619 20.2224C114.417 20.4385 115.404 20.5466 116.58 20.5466C117.756 20.5466 118.813 20.4385 119.751 20.2224C120.694 20.0143 121.466 19.7141 122.066 19.3219C122.666 18.9296 123.058 18.4653 123.242 17.929C123.421 17.4087 123.344 16.9564 123.01 16.5722C122.676 16.188 122.108 15.8958 121.305 15.6957C120.513 15.4875 119.529 15.3835 118.353 15.3835C117.176 15.3835 116.116 15.4875 115.173 15.6957C114.241 15.8958 113.477 16.188 112.879 16.5722C112.282 16.9564 111.894 17.4087 111.715 17.929ZM128.942 0.662576H130.542L128.629 6.23394H132.082L131.645 7.50671H128.192L126.131 13.5103H124.531L128.942 0.662576ZM140.44 7.62678C140.044 8.77948 139.908 9.91617 140.031 11.0368C140.154 12.1575 140.494 13.1621 141.053 14.0507C141.613 14.9312 142.335 15.6156 143.217 16.1039L141.848 17.2806C140.816 16.6883 140.004 15.8237 139.412 14.6871C138.832 13.5424 138.556 12.2616 138.586 10.8447C137.601 12.3576 136.388 13.7225 134.946 14.9392C133.507 16.1479 132.039 17.0565 130.544 17.6649L129.975 16.5122C131.206 16.0319 132.424 15.3314 133.629 14.4109C134.842 13.4903 135.913 12.4417 136.842 11.265C137.782 10.0803 138.465 8.86753 138.891 7.62678L139.567 5.65759H134.286L134.715 4.40884H139.97L141.141 0.99878H142.741L141.57 4.40884H146.775L146.346 5.65759H141.116L140.44 7.62678ZM151.21 0.662576H152.81L149.775 9.49992H153.635L153.181 10.8207H149.322L145.537 21.8434H143.937L151.21 0.662576ZM175.447 21.8434H173.873L181.145 0.662576H182.72L175.447 21.8434ZM159.233 16.4881C162.739 15.1273 165.681 13.3983 168.06 11.301C170.439 9.20374 172.178 6.85032 173.277 4.24074H164.429L164.857 2.99198H175.318C174.609 5.03322 173.564 6.96639 172.184 8.79149C170.816 10.6086 169.082 12.2816 166.983 13.8105C164.895 15.3314 162.465 16.6402 159.693 17.7369L159.233 16.4881ZM192.016 6.64219C191.598 7.83491 191.461 9.03564 191.605 10.2444C191.751 11.4451 192.118 12.5217 192.705 13.4743C193.292 14.4269 194.015 15.1433 194.874 15.6236L193.463 16.8484C192.436 16.216 191.614 15.2834 190.996 14.0507C190.389 12.8099 190.093 11.4411 190.108 9.94418C189.424 11.0008 188.622 12.0054 187.702 12.958C186.791 13.9106 185.827 14.7591 184.81 15.5035C183.803 16.24 182.816 16.8243 181.846 17.2566L181.218 16.0559C182.423 15.5516 183.655 14.7991 184.913 13.7985C186.181 12.7899 187.311 11.6572 188.301 10.4005C189.294 9.1357 190.007 7.88294 190.442 6.64219L191.844 2.55972H193.418L192.016 6.64219ZM202.423 0.662576H204.022L201.029 9.37984H204.889L204.427 10.7247H200.568L196.75 21.8434H195.15L202.423 0.662576ZM223.397 11.9734H216.363L214.368 17.7849H223.89L223.444 19.0817H202.929L203.374 17.7849H212.768L214.764 11.9734H208.061L211.334 2.43965H226.442L226.005 3.71242H212.497L210.089 10.7247H223.825L223.397 11.9734Z" fill="#021226"/>
<path d="M44.119 76.6228H4.46279L6.04145 70.9801H45.6977L44.119 76.6228ZM8.43237 78.5188H38.8542L35.2928 91.2487H27.7459L29.7287 84.1615H6.85371L8.43237 78.5188ZM16.5474 50.3504H47.0161L45.4754 55.8577H22.5066L22.1404 57.1668H44.2185L42.7535 62.4032H20.6754L20.2839 63.8026H43.7214L42.2059 69.2196H11.2684L16.5474 50.3504ZM76.0447 57.8439H68.1931C67.7762 60.1161 68.0736 62.1249 69.0852 63.8703C70.1125 65.6158 72.0573 66.9023 74.9195 67.7299L69.8252 73.3726C65.7912 72.1538 63.2187 69.8441 62.1076 66.4434C60.5477 68.4447 58.7063 70.1676 56.5834 71.6121C54.4647 73.0416 52.0679 74.125 49.3928 74.8623L47.1746 69.2196C50.694 68.2566 53.5447 66.7519 55.7266 64.7055C57.9085 62.659 59.4703 60.3719 60.4119 57.8439H52.3259L53.9172 52.1561H77.636L76.0447 57.8439ZM49.4291 82.9427C49.9132 81.2122 50.9393 79.7226 52.5075 78.4737C54.0799 77.2097 56.0972 76.2542 58.5595 75.6072C61.0259 74.9451 63.8039 74.6216 66.8935 74.6366C69.9133 74.6216 72.44 74.9451 74.4735 75.6072C76.5269 76.2542 77.9783 77.2097 78.8278 78.4737C79.6815 79.7226 79.8663 81.2122 79.3822 82.9427C78.8981 84.6731 77.8776 86.1703 76.3209 87.4343C74.7642 88.6982 72.776 89.6613 70.3564 90.3233C67.9482 91.0005 65.2363 91.339 62.2207 91.339C59.1269 91.339 56.5341 91.0005 54.4423 90.3233C52.3463 89.6613 50.8657 88.6982 50.0006 87.4343C49.1355 86.1703 48.945 84.6731 49.4291 82.9427ZM56.9291 82.9427C56.6512 83.9358 57.0685 84.6505 58.1807 85.0869C59.3087 85.5233 61.1773 85.7415 63.7867 85.7415C66.3336 85.7415 68.2618 85.5233 69.5714 85.0869C70.881 84.6505 71.6669 83.9358 71.9291 82.9427C72.2141 81.9797 71.8239 81.28 70.7585 80.8436C69.6931 80.4072 67.887 80.189 65.3401 80.189C62.7307 80.189 60.74 80.4072 59.3679 80.8436C58.0114 81.28 57.1985 81.9797 56.9291 82.9427ZM80.7717 49.4927H88.3186L85.7675 58.6113H91.1581L89.5289 64.4346H84.1383L81.4609 74.0046H73.914L80.7717 49.4927ZM107.982 62.3129C107.419 64.2691 107.181 66.2102 107.267 68.1362C107.353 70.0623 107.881 71.8604 108.851 73.5306C109.822 75.2009 111.312 76.5476 113.323 77.5708L107.716 83.033C105.808 82.1452 104.318 80.8812 103.246 79.2411C102.174 77.6009 101.476 75.6824 101.153 73.4855C99.5348 75.863 97.659 77.932 95.5259 79.6925C93.4083 81.453 91.0649 82.7922 88.4956 83.7101L86.0178 78.1577C88.6664 77.1796 90.975 75.8253 92.9435 74.0949C94.9318 72.3494 96.5383 70.461 97.7628 68.4296C98.9874 66.3983 99.8937 64.3594 100.482 62.3129L100.633 61.7712H92.2897L93.8936 56.0383H102.19L103.719 50.5761H111.265L109.737 56.0383H117.94L116.337 61.7712H108.133L107.982 62.3129ZM122.162 49.4927H129.709L125.327 65.1569H131.186L129.507 71.1607H123.647L118.027 91.2487H110.48L122.162 49.4927ZM159.295 75.2686C162.482 75.2686 165.157 75.5921 167.32 76.2391C169.487 76.8711 171.035 77.789 171.964 78.9928C172.908 80.1966 173.155 81.6336 172.703 83.3038C172.224 84.959 171.176 86.3885 169.558 87.5923C167.951 88.8111 165.888 89.7365 163.367 90.3685C160.842 91.0155 157.986 91.339 154.799 91.339C151.658 91.339 148.999 91.0155 146.82 90.3685C144.653 89.7365 143.1 88.8111 142.16 87.5923C141.215 86.3885 140.974 84.959 141.437 83.3038C141.905 81.6336 142.947 80.1966 144.565 78.9928C146.183 77.789 148.253 76.8711 150.773 76.2391C153.294 75.6072 156.134 75.2836 159.295 75.2686ZM142.117 67.6397H155.851L157.771 60.7781H165.224L163.304 67.6397H181.398L179.769 73.4629H140.487L142.117 67.6397ZM150.967 51.2532H181.529L180.595 54.5937C179.967 56.8358 179.35 58.7919 178.742 60.4621C178.134 62.1324 177.286 63.908 176.197 65.7889L169.014 65.1569C169.819 63.6221 170.474 62.2001 170.981 60.891C171.504 59.5819 171.974 58.2352 172.393 56.8508H149.401L150.967 51.2532ZM148.984 83.3038C148.712 84.2217 149.175 84.8838 150.374 85.29C151.593 85.6813 153.577 85.8769 156.327 85.8769C159.093 85.8769 161.202 85.6813 162.655 85.29C164.113 84.8838 164.977 84.2217 165.25 83.3038C165.491 82.3859 164.985 81.7088 163.732 81.2724C162.499 80.821 160.523 80.5953 157.805 80.5953C155.101 80.5953 153.015 80.821 151.545 81.2724C150.079 81.7088 149.225 82.3859 148.984 83.3038ZM222.883 56.58C222.177 59.0477 221.546 61.1618 220.991 62.9224C220.436 64.6829 219.691 66.7594 218.756 69.1519C217.837 71.5444 216.7 74.1551 215.346 76.984L207.942 76.3069C209.599 72.9513 210.935 69.8817 211.948 67.098C212.981 64.2992 213.922 61.4101 214.771 58.4308H190.021L191.612 52.7429H223.956L222.883 56.58ZM179.773 80.821H193.085L196.988 66.8723H204.441L200.538 80.821H219.335L217.706 86.6443H178.143L179.773 80.821Z" fill="#021226"/>
<path d="M24.1717 106.576C26.3749 106.576 28.2591 106.99 29.8244 107.818C31.4054 108.645 32.5031 109.804 33.1176 111.293C33.7363 112.768 33.7868 114.431 33.269 116.282C32.7554 118.117 31.7767 119.773 30.3329 121.247C28.8933 122.707 27.1493 123.858 25.1011 124.7C23.0727 125.528 20.9569 125.942 18.7538 125.942C16.5194 125.942 14.6118 125.528 13.0308 124.7C11.454 123.858 10.3542 122.707 9.7313 121.247C9.11261 119.773 9.06787 118.117 9.59708 116.282C10.0993 114.431 11.0722 112.768 12.5161 111.293C13.9641 109.804 15.7101 108.645 17.7541 107.818C19.8138 106.99 21.953 106.576 24.1717 106.576ZM12.8833 127.657H42.5083L39.111 139.8H16.9391L16.535 141.245H39.6444L38.0657 146.888H7.59695L11.0321 134.609H33.0634L33.4675 133.165H11.3425L12.8833 127.657ZM16.8627 116.282C16.4977 117.53 16.6444 118.486 17.3029 119.148C17.9615 119.81 18.9839 120.149 20.3703 120.164C21.7496 120.149 22.9458 119.81 23.9592 119.148C24.9882 118.486 25.6695 117.53 26.0033 116.282C26.3684 115.033 26.2273 114.085 25.5802 113.438C24.9373 112.776 23.9248 112.429 22.5426 112.399C21.1435 112.429 19.9295 112.776 18.9005 113.438C17.8758 114.085 17.1965 115.033 16.8627 116.282ZM41.1624 105.493H48.7092L42.9377 126.122H35.3908L41.1624 105.493ZM67.5761 115.966C66.9374 118.193 66.6452 120.382 66.6995 122.534C66.7694 124.685 67.3074 126.672 68.3137 128.492C69.3356 130.313 70.9101 131.75 73.0373 132.803L67.3336 138.446C65.353 137.483 63.7965 136.121 62.6641 134.361C61.5472 132.6 60.8172 130.546 60.4739 128.199C58.757 130.817 56.789 133.104 54.5699 135.06C52.3549 137.002 49.9147 138.491 47.2493 139.53L44.5281 133.842C47.3197 132.743 49.7542 131.246 51.8315 129.35C53.9131 127.439 55.6097 125.34 56.9214 123.053C58.2488 120.766 59.2535 118.403 59.9355 115.966L60.1376 115.243H51.5594L53.2012 109.375H77.4825L75.8407 115.243H67.7782L67.5761 115.966ZM80.678 105.493H88.2249L83.9309 120.841H89.7903L88.1106 126.845H82.2512L76.5428 147.249H68.9959L80.678 105.493ZM120.052 147.384H112.552L124.272 105.493H131.772L120.052 147.384ZM93.252 120.028H106.424L107.952 114.566H94.7801L96.3967 108.788H117.256L112.533 125.671H99.4546L97.7054 131.923C100.886 131.893 103.833 131.773 106.549 131.562C109.279 131.351 112.05 131.028 114.859 130.591L113.839 136.415C110.735 136.956 107.6 137.325 104.436 137.521C101.272 137.716 97.5886 137.814 93.3854 137.814H92.3542H88.2761L93.252 120.028ZM179.493 130.953H163.883L162.077 137.408H154.437L156.243 130.953H139.93L141.509 125.31H181.071L179.493 130.953ZM148.185 115.018C148.682 113.242 149.779 111.692 151.478 110.368C153.196 109.029 155.36 107.998 157.968 107.276C160.596 106.539 163.489 106.17 166.645 106.17C169.785 106.17 172.448 106.539 174.632 107.276C176.836 107.998 178.415 109.029 179.369 110.368C180.326 111.692 180.557 113.242 180.06 115.018C179.568 116.778 178.472 118.32 176.773 119.645C175.075 120.969 172.921 121.992 170.313 122.714C167.725 123.421 164.86 123.775 161.719 123.775C158.563 123.775 155.873 123.421 153.649 122.714C151.445 121.992 149.856 120.969 148.883 119.645C147.925 118.32 147.693 116.778 148.185 115.018ZM143.49 133.977H151.084L149.152 140.884H172.402L170.785 146.662H139.941L143.49 133.977ZM156.341 115.018C156.044 116.026 156.505 116.778 157.725 117.275C158.962 117.771 160.828 118.027 163.323 118.042C165.812 118.027 167.798 117.771 169.28 117.275C170.778 116.778 171.669 116.026 171.951 115.018C172.254 113.934 171.815 113.129 170.634 112.603C169.469 112.076 167.668 111.813 165.23 111.813C159.886 111.813 156.923 112.881 156.341 115.018ZM218.75 131.539H211.625L214.555 121.067H212.587L210.023 130.23H202.992L209.698 106.26H216.729L214.228 115.198H216.197L218.912 105.493H226.037L218.75 131.539ZM187.217 109.375H193.826L194.786 105.944H202.239L201.279 109.375H207.889L206.335 114.927H185.663L187.217 109.375ZM184.337 123.188C184.741 121.744 185.505 120.465 186.629 119.351C187.757 118.223 189.126 117.35 190.736 116.733C192.351 116.101 194.049 115.785 195.83 115.785C197.658 115.785 199.21 116.101 200.486 116.733C201.767 117.35 202.663 118.223 203.176 119.351C203.692 120.465 203.756 121.744 203.368 123.188C202.952 124.618 202.175 125.889 201.035 127.003C199.9 128.101 198.519 128.959 196.893 129.576C195.268 130.193 193.541 130.501 191.713 130.501C189.931 130.501 188.408 130.193 187.143 129.576C185.883 128.944 185 128.079 184.495 126.98C183.994 125.867 183.941 124.603 184.337 123.188ZM186.14 139.53C186.595 137.904 187.595 136.505 189.143 135.331C190.69 134.158 192.69 133.262 195.144 132.645C197.613 132.028 200.419 131.72 203.559 131.72C206.731 131.72 209.379 132.028 211.503 132.645C213.643 133.262 215.158 134.158 216.049 135.331C216.959 136.49 217.193 137.889 216.749 139.53C216.275 141.17 215.256 142.577 213.693 143.75C212.146 144.924 210.132 145.812 207.651 146.414C205.182 147.031 202.361 147.339 199.189 147.339C196.049 147.339 193.416 147.031 191.292 146.414C189.183 145.797 187.684 144.901 186.793 143.728C185.899 142.569 185.681 141.17 186.14 139.53ZM190.993 123.188C190.806 123.911 190.901 124.467 191.276 124.858C191.651 125.25 192.244 125.445 193.057 125.445C193.947 125.445 194.695 125.257 195.301 124.881C195.926 124.49 196.349 123.926 196.571 123.188C196.762 122.451 196.667 121.894 196.288 121.518C195.913 121.127 195.304 120.931 194.46 120.931C193.585 120.931 192.845 121.119 192.24 121.495C191.635 121.872 191.219 122.436 190.993 123.188ZM193.64 139.53C193.404 140.372 193.851 140.982 194.98 141.358C196.125 141.734 198.033 141.922 200.705 141.922C203.424 141.922 205.445 141.734 206.769 141.358C208.109 140.982 208.904 140.372 209.156 139.53C209.384 138.657 208.957 138.032 207.875 137.656C206.808 137.28 204.955 137.092 202.314 137.092C199.517 137.092 197.433 137.28 196.062 137.656C194.696 138.017 193.888 138.642 193.64 139.53Z" fill="#021226"/>
</svg>
