<svg width="260" height="154" viewBox="0 0 260 154" fill="none" xmlns="http://www.w3.org/2000/svg">
<path d="M135.38 38.9657C135.38 38.9657 159.842 71.8704 181.527 68.6965C203.213 65.5227 217.765 31.4041 217.765 31.4041L209.036 25.8499C209.036 25.8499 177.957 72.1163 150.583 20.2957L135.38 38.9657Z" fill="#015ADC"/>
<path opacity="0.08" d="M135.38 38.9657C135.38 38.9657 159.842 71.8704 181.527 68.6965C203.213 65.5227 217.765 31.4041 217.765 31.4041L209.036 25.8499C209.036 25.8499 177.957 72.1163 150.583 20.2957L135.38 38.9657Z" fill="black"/>
<path d="M154.526 24.2152C154.526 24.2152 161.373 28.3015 163.174 35.2443C164.975 42.187 164.595 59.778 150.408 68.5695C136.221 77.361 120.939 81.2648 123.319 91.5797L115.186 87.6124L125.303 65.7924L148.392 52.7321L154.526 24.2152Z" fill="#015ADC"/>
<path opacity="0.45" d="M130 153.533C201.797 153.533 260 146.172 260 137.093C260 128.013 201.797 120.652 130 120.652C58.203 120.652 0 128.013 0 137.093C0 146.172 58.203 153.533 130 153.533Z" fill="#E6E6E6"/>
<path d="M143.671 129.118C143.671 129.118 146.488 131.499 149.336 130.166C152.185 128.833 154.43 131.078 152.383 133.173C150.336 135.268 142.227 135.767 142.227 135.767L139.934 131.332L143.671 129.118Z" fill="#015ADC"/>
<path d="M51.6934 110.885C51.6934 110.885 48.0118 110.758 46.5994 113.566C45.1871 116.375 42.0371 116.002 42.3386 113.09C42.6401 110.178 48.6862 104.775 48.6862 104.775L53.2327 106.83L51.6934 110.885Z" fill="#015ADC"/>
<path d="M163.769 7.96528C163.769 7.96528 164.562 13.3687 163.817 17.0186C163.752 17.3763 163.617 17.7175 163.419 18.0221C163.22 18.3268 162.963 18.5888 162.663 18.7927C162.362 18.9967 162.023 19.1386 161.667 19.21C161.31 19.2814 160.943 19.2809 160.587 19.2086C158.754 18.8277 156.382 17.7645 155.62 14.9239L153.732 10.2584C153.452 9.28517 153.482 8.24908 153.818 7.2937C154.153 6.33831 154.778 5.51097 155.604 4.92634C158.548 2.54597 163.468 4.65657 163.769 7.96528Z" fill="#F4A28C"/>
<path d="M157.485 10.0997L143.33 20.9939L149.892 28.3651L157.366 17.7487L157.485 10.0997Z" fill="#F4A28C"/>
<path d="M162.428 8.26682C160.75 8.42531 159.059 8.38803 157.39 8.15574C157.917 8.86912 158.223 9.72123 158.271 10.6068C158.319 11.4924 158.106 12.3726 157.66 13.1387C157.242 13.8882 156.576 14.469 155.777 14.7817C154.978 15.0944 154.095 15.1194 153.28 14.8525L152.986 7.85423C152.91 6.85507 153.106 5.85406 153.553 4.95728C154 4.06049 154.682 3.30132 155.525 2.76023C156.258 2.29163 157.018 1.86769 157.802 1.4907C159.77 0.578226 162.793 1.76048 164.523 0.300516C164.698 0.156463 164.907 0.0599554 165.13 0.0203161C165.353 -0.0193231 165.583 -0.000752189 165.796 0.0742355C166.01 0.149223 166.201 0.278093 166.35 0.448387C166.5 0.618681 166.603 0.824642 166.649 1.04637C167.078 3.15696 166.879 6.52122 164.071 7.84629C163.55 8.07681 162.995 8.21894 162.428 8.26682Z" fill="#24285B"/>
<path d="M158.239 12.9403C158.239 12.9403 158.081 10.8456 156.518 11.0995C154.955 11.3534 155.161 14.3685 157.311 14.5351L158.239 12.9403Z" fill="#F4A28C"/>
<path d="M164.079 11.3931L165.705 13.4084C165.798 13.5226 165.86 13.6582 165.886 13.8027C165.912 13.9472 165.901 14.096 165.855 14.2352C165.808 14.3744 165.727 14.4997 165.619 14.5992C165.511 14.6988 165.38 14.7696 165.237 14.8049L163.174 15.3048L164.079 11.3931Z" fill="#F4A28C"/>
<path opacity="0.31" d="M157.152 18.05C156.515 17.0192 156.172 15.8339 156.16 14.6223C156.16 14.6223 152.851 16.717 155.01 21.089L157.152 18.05Z" fill="#CE8172"/>
<path d="M151.979 25.3975C151.979 25.3975 148.249 17.9311 133.174 17.8597C118.098 17.7883 81.1784 37.5136 83.7174 80.4714L115.186 87.6125C115.186 87.6125 121.002 73.1637 139.561 66.9826C158.612 60.6191 161.349 31.6896 151.979 25.3975Z" fill="white"/>
<path d="M145.623 19.2086C145.623 19.2086 110.711 -1.2785 83.5906 1.89533C56.4702 5.06916 41.9023 36.4107 41.9023 36.4107L49.7258 41.9649C49.7258 41.9649 76.7034 10.6789 93.7627 21.7635C110.822 32.8481 140.347 55.5886 145.623 19.2086Z" fill="#015ADC"/>
<path d="M106.26 25.7229C106.26 25.7229 76.1083 41.1953 77.2985 79.0829L96.3415 85.6289C96.3415 85.6289 98.9202 46.9479 134.824 43.179C134.824 43.179 148.107 35.8792 149.344 23.8662C149.344 23.8662 151.146 19.407 137.625 15.0271L106.26 25.7229Z" fill="#015ADC"/>
<path d="M152.463 22.1285L151.725 26.6433H154.28L154.526 21.7874L152.463 22.1285Z" fill="white"/>
<path opacity="0.08" d="M148.622 35.0778C148.622 35.0778 141.664 60.5398 122.018 62.9281C102.372 65.3164 79.4565 60.3494 79.4565 60.3494C80.7655 55.4135 82.7833 50.6936 85.4471 46.3369C89.9302 38.9578 110.909 46.0671 110.909 46.0671L148.622 35.0778Z" fill="black"/>
<path d="M149.471 22.0809C149.471 22.0809 147.559 27.0797 149.471 27.8652C150.439 28.2699 151.637 27.6589 152.581 26.9607C153.057 26.6022 153.395 26.0916 153.539 25.514C153.683 24.9365 153.625 24.3268 153.375 23.7869L152.581 22.0413L149.471 22.0809Z" fill="#FFD200"/>
<path d="M151.725 25.3976C151.725 25.3976 153.074 40.0051 132.245 51.5103C111.417 63.0154 88.7084 51.5103 88.7084 51.5103L81.8608 40.6796L96.3414 37.6248C96.3414 37.6248 129.738 51.7404 149.043 24.4613L151.725 25.3976Z" fill="#FFD200"/>
<path d="M79.9168 79.9795C79.9168 79.9795 74.9895 91.3101 85.5662 97.134C91.8028 100.562 102.808 102.363 110.798 103.26C113.876 103.608 116.835 104.645 119.458 106.293C122.08 107.941 124.297 110.159 125.945 112.781L138.395 132.475L145.623 127.912L138.696 110.178C136.847 105.432 134.071 101.101 130.528 97.4407C126.986 93.78 122.749 90.8623 118.066 88.8583L115.218 87.6443L79.9168 79.9795Z" fill="#24285B"/>
<path d="M103.832 96.1738C103.832 96.1738 104.363 115.487 87.7008 118.391C71.0382 121.295 50.1465 111.519 50.1465 111.519L53.844 104.902C53.844 104.902 88.2324 115.487 85.8521 94.0632L103.832 96.1738Z" fill="#24285B"/>
<path d="M145.624 18.5262L148.393 17.098L152.463 22.1285L149.345 26.0958L145.624 18.5262Z" fill="white"/>
<path opacity="0.26" d="M41.9026 36.4346L40.4902 39.6005L47.8932 45.1547L49.7261 41.9888L41.9026 36.4346Z" fill="#015ADC"/>
<path d="M50.5355 59.0004L48.1948 58.5957L49.139 53.2002C49.2983 52.2674 49.0824 51.3095 48.5384 50.5352C47.9945 49.7608 47.1665 49.2329 46.235 49.0663L37.7847 47.5905C36.8525 47.4267 35.8934 47.6398 35.1183 48.1829C34.3431 48.7259 33.8153 49.5545 33.6508 50.4866L32.7065 55.8821L30.3262 55.4774L31.2704 50.0819C31.5435 48.5276 32.422 47.1451 33.7131 46.2377C35.0043 45.3303 36.6027 44.9722 38.1576 45.2418L46.6238 46.7256C47.3939 46.8599 48.13 47.1445 48.7901 47.5633C49.4501 47.9821 50.0212 48.5269 50.4707 49.1665C50.9202 49.806 51.2392 50.5279 51.4096 51.2908C51.58 52.0538 51.5985 52.8428 51.4639 53.6128L50.5355 59.0004Z" fill="#015ADC"/>
<path opacity="0.3" d="M50.5355 59.0004L48.1948 58.5957L49.139 53.2002C49.2983 52.2674 49.0824 51.3095 48.5384 50.5352C47.9945 49.7608 47.1665 49.2329 46.235 49.0663L37.7847 47.5905C36.8525 47.4267 35.8934 47.6398 35.1183 48.1829C34.3431 48.7259 33.8153 49.5545 33.6508 50.4866L32.7065 55.8821L30.3262 55.4774L31.2704 50.0819C31.5435 48.5276 32.422 47.1451 33.7131 46.2377C35.0043 45.3303 36.6027 44.9722 38.1576 45.2418L46.6238 46.7256C47.3939 46.8599 48.13 47.1445 48.7901 47.5633C49.4501 47.9821 50.0212 48.5269 50.4707 49.1665C50.9202 49.806 51.2392 50.5279 51.4096 51.2908C51.58 52.0538 51.5985 52.8428 51.4639 53.6128L50.5355 59.0004Z" fill="white"/>
<path d="M41.2674 40.1797C41.2674 40.1797 33.7454 48.2253 39.006 50.328C44.2667 52.4307 46.3773 52.3593 47.8928 45.1547L41.2674 40.1797Z" fill="#F4A28C"/>
<path d="M62.4263 58.5278L18.8511 50.9149L13.6033 80.9525L57.1785 88.5654L62.4263 58.5278Z" fill="#015ADC"/>
<path opacity="0.08" d="M56.978 57.588C56.978 57.588 65.2062 87.66 14.5281 75.6312L13.5918 80.9553L57.1685 88.5725L62.4211 58.5322L56.978 57.588Z" fill="black"/>
<path opacity="0.4" d="M210.409 26.7465L211.678 24.0804L218.557 28.9681L217.764 31.4041L210.409 26.7465Z" fill="#015ADC"/>
<path d="M212.893 24.9452C212.893 24.9452 218.955 17.3995 223.715 19.645C228.476 21.8904 227.286 25.6673 218.558 28.9681L212.893 24.9452Z" fill="#F4A28C"/>
</svg>
