<svg width="32" height="32" viewBox="0 0 32 32" fill="none" xmlns="http://www.w3.org/2000/svg">
<path d="M31.5 16C31.5 24.5604 24.5604 31.5 16 31.5C7.43959 31.5 0.5 24.5604 0.5 16C0.5 7.43959 7.43959 0.5 16 0.5C24.5604 0.5 31.5 7.43959 31.5 16Z" stroke="#F6F7FB"/>
<path d="M12.7995 13.2923H9.8457M9.8457 16.7385C9.8457 19.2 12.6007 22.1539 15.9995 22.1539C17.6317 22.1539 19.1969 21.5055 20.351 20.3515C21.505 19.1974 22.1534 17.6321 22.1534 16C22.1534 14.3679 21.505 12.8027 20.351 11.6486C19.1969 10.4945 17.6317 9.84619 15.9995 9.84619C12.3072 9.84619 9.8457 13.2923 9.8457 13.2923V9.84619" stroke="#021226" stroke-width="0.8" stroke-linecap="round" stroke-linejoin="round"/>
</svg>
