<svg width="24" height="24" viewBox="0 0 24 24" fill="none" xmlns="http://www.w3.org/2000/svg">
<path d="M11.25 3C10.8585 3 10.455 3.13875 10.1715 3.42225C9.88875 3.705 9.75 4.1085 9.75 4.5V5.25H5.25V6.75H6V18.75C6 19.9837 7.01625 21 8.25 21H17.25C18.4838 21 19.5 19.9837 19.5 18.75V6.75H20.25V5.25H15.75V4.5C15.75 4.1085 15.6112 3.705 15.3278 3.4215C15.045 3.1395 14.6423 3 14.25 3H11.25ZM11.25 4.5H14.25V5.25H11.25V4.5ZM7.5 6.75H18V18.75C18 19.1663 17.6663 19.5 17.25 19.5H8.25C7.83375 19.5 7.5 19.1663 7.5 18.75V6.75ZM9 9V17.25H10.5V9H9ZM12 9V17.25H13.5V9H12ZM15 9V17.25H16.5V9H15Z" fill="#021226"/>
</svg>
