<svg width="40" height="40" viewBox="0 0 40 40" fill="none" xmlns="http://www.w3.org/2000/svg">
<g clip-path="url(#clip0_165_390)">
<path d="M39.3762 30.0037C39.0306 30.0037 38.7512 29.7243 38.7512 29.3787V21.2568C38.7512 20.9112 39.0306 20.6318 39.3762 20.6318C39.7218 20.6318 40.0012 20.9112 40.0012 21.2568V29.3787C40.0012 29.7243 39.7218 30.0037 39.3762 30.0037Z" fill="#015ADC"/>
<path d="M39.3769 21.8819C39.1475 21.8819 38.9263 21.7557 38.8169 21.5363L35.6919 15.2851C35.5375 14.9763 35.6625 14.6007 35.9713 14.4463C36.2794 14.2913 36.6563 14.4169 36.81 14.7257L39.935 20.9769C40.0894 21.2857 39.9644 21.6613 39.6556 21.8157C39.5663 21.8607 39.4706 21.8819 39.3769 21.8819Z" fill="#015ADC"/>
<path d="M39.3762 28.1274H32.5037C32.158 28.1274 31.8787 27.8481 31.8787 27.5024C31.8787 27.1568 32.158 26.8774 32.5037 26.8774H39.3762C39.7218 26.8774 40.0012 27.1568 40.0012 27.5024C40.0012 27.8481 39.7218 28.1274 39.3762 28.1274Z" fill="#015ADC"/>
<path d="M39.3763 30.0037H35.7532C35.4075 30.0037 35.1282 29.7243 35.1282 29.3787C35.1282 29.033 35.4075 28.7537 35.7532 28.7537H39.3763C39.7219 28.7537 40.0013 29.033 40.0013 29.3787C40.0013 29.7243 39.7219 30.0037 39.3763 30.0037Z" fill="#015ADC"/>
<path d="M26.878 26.2505H3.12305C2.77742 26.2505 2.49805 25.9711 2.49805 25.6255C2.49805 25.2799 2.77742 25.0005 3.12305 25.0005H26.878C27.2237 25.0005 27.503 25.2799 27.503 25.6255C27.503 25.9711 27.2237 26.2505 26.878 26.2505Z" fill="#015ADC"/>
<path d="M36.2513 15.6306H26.877C26.5313 15.6306 26.252 15.3506 26.252 15.0056C26.252 14.6606 26.5313 14.3806 26.877 14.3806H36.2513C36.597 14.3806 36.8763 14.6606 36.8763 15.0056C36.8763 15.3506 36.597 15.6306 36.2513 15.6306Z" fill="#015ADC"/>
<path d="M26.8782 31.2512C26.5332 31.2512 26.2532 30.9719 26.2532 30.6262L26.252 15.0056C26.252 14.6606 26.5313 14.3806 26.877 14.3806C27.222 14.3806 27.502 14.6606 27.502 15.0056L27.5032 30.6262C27.5032 30.9712 27.2238 31.2512 26.8782 31.2512Z" fill="#015ADC"/>
<path d="M36.2644 21.8818C36.2613 21.8825 36.2569 21.8825 36.2519 21.8818H29.3782C29.0325 21.8818 28.7532 21.6025 28.7532 21.2568V17.5068C28.7532 17.1618 29.0325 16.8818 29.3782 16.8818H34.3763C34.6132 16.8818 34.8294 17.0156 34.9357 17.2275L36.7613 20.8768C36.8425 20.9825 36.89 21.1143 36.89 21.2568C36.8894 21.6018 36.61 21.8818 36.2644 21.8818ZM30.0032 20.6318H35.2413L33.99 18.1318H30.0032V20.6318Z" fill="#015ADC"/>
<path d="M32.5037 35.6262C30.0918 35.6262 28.1287 33.6631 28.1287 31.2512C28.1287 28.8393 30.0918 26.8762 32.5037 26.8762C34.9155 26.8762 36.8787 28.8393 36.8787 31.2512C36.8787 33.6631 34.9155 35.6262 32.5037 35.6262ZM32.5037 28.1262C30.7805 28.1262 29.3787 29.5281 29.3787 31.2512C29.3787 32.9743 30.7805 34.3762 32.5037 34.3762C34.2268 34.3762 35.6287 32.9743 35.6287 31.2512C35.6287 29.5281 34.2268 28.1262 32.5037 28.1262Z" fill="#015ADC"/>
<path d="M16.8794 35.6262C14.4675 35.6262 12.5044 33.6631 12.5044 31.2512C12.5044 28.8393 14.4675 26.8762 16.8794 26.8762C19.2913 26.8762 21.2544 28.8393 21.2544 31.2512C21.2544 33.6631 19.2913 35.6262 16.8794 35.6262ZM16.8794 28.1262C15.1563 28.1262 13.7544 29.5281 13.7544 31.2512C13.7544 32.9743 15.1563 34.3762 16.8794 34.3762C18.6025 34.3762 20.0044 32.9743 20.0044 31.2512C20.0044 29.5281 18.6025 28.1262 16.8794 28.1262Z" fill="#015ADC"/>
<path d="M8.13306 35.6262C5.72118 35.6262 3.75806 33.6631 3.75806 31.2512C3.75806 28.8393 5.72118 26.8762 8.13306 26.8762C10.5449 26.8762 12.5081 28.8393 12.5081 31.2512C12.5081 33.6631 10.5449 35.6262 8.13306 35.6262ZM8.13306 28.1262C6.40993 28.1262 5.00806 29.5281 5.00806 31.2512C5.00806 32.9743 6.40993 34.3762 8.13306 34.3762C9.85618 34.3762 11.2581 32.9743 11.2581 31.2512C11.2581 29.5281 9.85618 28.1262 8.13306 28.1262Z" fill="#015ADC"/>
<path d="M8.13306 33.1262C7.09931 33.1262 6.25806 32.285 6.25806 31.2512C6.25806 30.2175 7.09931 29.3762 8.13306 29.3762C9.16681 29.3762 10.0081 30.2175 10.0081 31.2512C10.0081 32.285 9.16681 33.1262 8.13306 33.1262ZM8.13306 30.6262C7.78806 30.6262 7.50806 30.9062 7.50806 31.2512C7.50806 31.5962 7.78806 31.8762 8.13306 31.8762C8.47806 31.8762 8.75806 31.5962 8.75806 31.2512C8.75806 30.9062 8.47743 30.6262 8.13306 30.6262Z" fill="#015ADC"/>
<path d="M16.8794 33.1262C15.8456 33.1262 15.0044 32.285 15.0044 31.2512C15.0044 30.2175 15.8456 29.3762 16.8794 29.3762C17.9131 29.3762 18.7544 30.2175 18.7544 31.2512C18.7544 32.285 17.9131 33.1262 16.8794 33.1262ZM16.8794 30.6262C16.5344 30.6262 16.2544 30.9062 16.2544 31.2512C16.2544 31.5962 16.5344 31.8762 16.8794 31.8762C17.2244 31.8762 17.5044 31.5962 17.5044 31.2512C17.5044 30.9062 17.2244 30.6262 16.8794 30.6262Z" fill="#015ADC"/>
<path d="M32.5024 33.1262C31.4687 33.1262 30.6274 32.285 30.6274 31.2512C30.6274 30.2175 31.4687 29.3762 32.5024 29.3762C33.5362 29.3762 34.3774 30.2175 34.3774 31.2512C34.3774 32.285 33.5362 33.1262 32.5024 33.1262ZM32.5024 30.6262C32.1574 30.6262 31.8774 30.9062 31.8774 31.2512C31.8774 31.5962 32.1574 31.8762 32.5024 31.8762C32.8474 31.8762 33.1274 31.5962 33.1274 31.2512C33.1274 30.9062 32.8474 30.6262 32.5024 30.6262Z" fill="#015ADC"/>
<path d="M13.1819 31.2512H11.8357C11.4901 31.2512 11.2107 30.9718 11.2107 30.6262C11.2107 30.2806 11.4901 30.0012 11.8357 30.0012H13.1819C13.5276 30.0012 13.8069 30.2806 13.8069 30.6262C13.8069 30.9718 13.5276 31.2512 13.1819 31.2512Z" fill="#015ADC"/>
<path d="M28.8057 31.2512H20.5769C20.2313 31.2512 19.9519 30.9718 19.9519 30.6262C19.9519 30.2806 20.2313 30.0012 20.5769 30.0012H28.8057C29.1513 30.0012 29.4307 30.2806 29.4307 30.6262C29.4307 30.9718 29.1513 31.2512 28.8057 31.2512Z" fill="#015ADC"/>
<path d="M4.43571 31.2512H1.24634C0.900713 31.2512 0.621338 30.9718 0.621338 30.6262C0.621338 30.2806 0.900713 30.0012 1.24634 30.0012H4.43571C4.78134 30.0012 5.06071 30.2806 5.06071 30.6262C5.06071 30.9718 4.78071 31.2512 4.43571 31.2512Z" fill="#015ADC"/>
<path d="M1.24621 31.2512C1.17309 31.2512 1.09934 31.238 1.02621 31.2118C0.703088 31.0905 0.539963 30.7299 0.660588 30.4068L2.53746 25.4062C2.65934 25.0824 3.01934 24.9205 3.34246 25.0405C3.66559 25.1618 3.82871 25.5224 3.70809 25.8455L1.83121 30.8462C1.73684 31.0968 1.49871 31.2512 1.24621 31.2512Z" fill="#015ADC"/>
<path d="M29.9995 23.7556H29.3745C29.0289 23.7556 28.7495 23.4762 28.7495 23.1306C28.7495 22.785 29.0289 22.5056 29.3745 22.5056H29.9995C30.3451 22.5056 30.6245 22.785 30.6245 23.1306C30.6245 23.4762 30.3451 23.7556 29.9995 23.7556Z" fill="#015ADC"/>
<path d="M22.495 26.2713H11.865C11.5194 26.2713 11.24 25.992 11.24 25.6463V22.502C11.24 22.1563 11.5194 21.877 11.865 21.877H22.495C22.8406 21.877 23.12 22.1563 23.12 22.502V25.6463C23.12 25.992 22.8406 26.2713 22.495 26.2713ZM12.49 25.0213H21.87V23.127H12.49V25.0213Z" fill="#015ADC"/>
<path d="M14.3669 23.1268C14.0213 23.1268 13.7419 22.8475 13.7419 22.5018V18.7512C13.7419 18.4062 14.0213 18.1262 14.3669 18.1262C14.7126 18.1262 14.9919 18.4062 14.9919 18.7512V22.5018C14.9919 22.8475 14.7126 23.1268 14.3669 23.1268Z" fill="#015ADC"/>
<path d="M19.9932 23.1268C19.6475 23.1268 19.3682 22.8475 19.3682 22.5018V18.1262C19.3682 17.7812 19.6475 17.5012 19.9932 17.5012C20.3388 17.5012 20.6182 17.7812 20.6182 18.1262V22.5018C20.6182 22.8475 20.3388 23.1268 19.9932 23.1268Z" fill="#015ADC"/>
<path d="M14.3669 19.3762C14.2181 19.3762 14.0681 19.3231 13.9488 19.2156L1.45315 7.9643C1.1969 7.73305 1.17627 7.33805 1.4069 7.0818C1.63752 6.82555 2.03315 6.80555 2.2894 7.03555L14.785 18.2868C15.0413 18.5181 15.0619 18.9131 14.8313 19.1693C14.7081 19.3062 14.5381 19.3762 14.3669 19.3762Z" fill="#015ADC"/>
<path d="M19.9926 18.7512C19.8657 18.7512 19.7376 18.7125 19.6263 18.6325L1.50447 5.50498C1.22509 5.30248 1.16259 4.91185 1.36572 4.63248C1.56697 4.3531 1.95759 4.28935 2.23822 4.49248L20.3601 17.62C20.6395 17.8225 20.702 18.2131 20.4995 18.4925C20.3776 18.6612 20.1863 18.7512 19.9926 18.7512Z" fill="#015ADC"/>
<path d="M1.87384 20.0025C1.52884 20.0025 1.24884 19.7225 1.24884 19.3775L1.24634 4.99878C1.24634 4.65378 1.52571 4.37378 1.87134 4.37378C2.21634 4.37378 2.49634 4.65378 2.49634 4.99878L2.49884 19.3775C2.49884 19.7225 2.21946 20.0025 1.87384 20.0025Z" fill="#015ADC"/>
<path d="M1.87378 23.1286C0.840029 23.1286 -0.0012207 22.2868 -0.0012207 21.253C-0.0012207 20.9074 0.278154 20.628 0.623779 20.628C0.969404 20.628 1.24878 20.9074 1.24878 21.253C1.24878 21.598 1.52878 21.8786 1.87378 21.8786C2.21878 21.8786 2.49878 21.598 2.49878 21.253C2.49878 20.4136 1.60003 19.9393 1.59065 19.9349C1.28565 19.7768 1.16253 19.4011 1.31815 19.0955C1.4744 18.7893 1.84628 18.6649 2.15315 18.8193C2.21815 18.8518 3.74878 19.6361 3.74878 21.2536C3.74878 22.2868 2.90753 23.1286 1.87378 23.1286Z" fill="#015ADC"/>
<path d="M2.49878 18.7532H1.24878C0.903154 18.7532 0.623779 18.4732 0.623779 18.1282C0.623779 17.7832 0.903154 17.5032 1.24878 17.5032H2.49878C2.8444 17.5032 3.12378 17.7832 3.12378 18.1282C3.12378 18.4732 2.8444 18.7532 2.49878 18.7532Z" fill="#015ADC"/>
<path d="M12.4906 23.1269C12.2475 23.1269 12.0162 22.9838 11.9156 22.7463L8.17374 13.9375C8.03812 13.62 8.18687 13.2525 8.50437 13.1175C8.81937 12.9838 9.18937 13.1307 9.32374 13.4482L13.0656 22.2575C13.2012 22.575 13.0525 22.9419 12.735 23.0769C12.6556 23.1113 12.5725 23.1269 12.4906 23.1269Z" fill="#015ADC"/>
<path d="M24.373 26.2713C24.0274 26.2713 23.748 25.992 23.748 25.6463V17.5063C23.748 17.1613 24.0274 16.8813 24.373 16.8813C24.7187 16.8813 24.998 17.1613 24.998 17.5063V25.6463C24.998 25.992 24.7187 26.2713 24.373 26.2713Z" fill="#015ADC"/>
<path d="M26.8718 18.1313H24.373C24.0274 18.1313 23.748 17.8513 23.748 17.5063C23.748 17.1613 24.0274 16.8813 24.373 16.8813H26.8718C27.2174 16.8813 27.4968 17.1613 27.4968 17.5063C27.4968 17.8513 27.2174 18.1313 26.8718 18.1313Z" fill="#015ADC"/>
</g>
<defs>
<clipPath id="clip0_165_390">
<rect width="40" height="40" fill="white"/>
</clipPath>
</defs>
</svg>
