<svg width="293" height="237" viewBox="0 0 293 237" fill="none" xmlns="http://www.w3.org/2000/svg">
<path opacity="0.3" d="M86.42 7.97828C44.9065 18.2298 12.0916 50.6083 2.46936 92.3045C-4.68639 123.313 1.59646 155.285 49.7582 166.907C153.887 192.049 266.359 183.756 279.828 133.473C293.297 83.1898 267.872 7.17643 208.382 1.83753C174.431 -1.19732 123.965 -1.29882 86.42 7.97828Z" fill="#E6E6E6"/>
<path d="M137.109 142.872C137.109 142.872 129.436 146.759 132.369 151.256C135.302 155.752 141.697 147.064 141.697 147.064L137.109 142.872Z" fill="#F4A28C"/>
<path d="M119.57 65.9956C119.356 65.2195 119.35 64.4006 119.553 63.6216C119.757 62.8426 120.162 62.131 120.728 61.5586C121.294 60.9862 122.002 60.5732 122.778 60.3614C123.555 60.1496 124.374 60.1464 125.152 60.3522C139.723 64.3341 152.523 73.1177 161.479 85.2806C163.073 87.4425 164.595 89.5537 166.026 91.5939C170.786 98.368 172.718 106.731 171.413 114.906C170.107 123.082 165.666 130.426 159.033 135.381L142.499 147.754L135.962 141.775L149.228 129.098C150.929 127.473 152.281 125.519 153.203 123.355C154.125 121.19 154.598 118.862 154.592 116.509C154.586 114.157 154.103 111.83 153.17 109.671C152.237 107.511 150.876 105.564 149.167 103.946L123.122 79.3124L119.57 65.9956Z" fill="#015ADC"/>
<path opacity="0.46" d="M119.57 65.9956C119.356 65.2195 119.35 64.4006 119.553 63.6216C119.757 62.8426 120.162 62.131 120.728 61.5586C121.294 60.9862 122.002 60.5732 122.778 60.3614C123.555 60.1496 124.374 60.1464 125.152 60.3522C139.723 64.3341 152.523 73.1177 161.479 85.2806C163.073 87.4425 164.595 89.5537 166.026 91.5939C170.786 98.368 172.718 106.731 171.413 114.906C170.107 123.082 165.666 130.426 159.033 135.381L142.499 147.754L135.962 141.775L149.228 129.098C150.929 127.473 152.281 125.519 153.203 123.355C154.125 121.19 154.598 118.862 154.592 116.509C154.586 114.157 154.103 111.83 153.17 109.671C152.237 107.511 150.876 105.564 149.167 103.946L123.122 79.3124L119.57 65.9956Z" fill="white"/>
<path opacity="0.45" d="M152.994 236.952C230.279 236.952 292.932 230.935 292.932 223.513C292.932 216.092 230.279 210.075 152.994 210.075C75.7082 210.075 13.0558 216.092 13.0558 223.513C13.0558 230.935 75.7082 236.952 152.994 236.952Z" fill="#E6E6E6"/>
<path d="M104.243 43.5743C105.566 46.1388 106.535 48.8702 107.126 51.6943C107.176 52.0332 107.158 52.3786 107.074 52.7106C106.99 53.0425 106.84 53.3545 106.634 53.6283C106.429 53.9021 106.171 54.1323 105.875 54.3056C105.58 54.4789 105.253 54.5918 104.913 54.6378C103.828 54.8543 102.704 54.7541 101.675 54.3491C100.645 53.9442 99.7541 53.2516 99.1075 52.3541L95.9509 48.7407C95.3932 47.9546 95.0937 47.0147 95.0937 46.0509C95.0937 45.0872 95.3932 44.1472 95.9509 43.3612C97.8591 40.3162 102.934 40.7019 104.243 43.5743Z" fill="#F4A28C"/>
<path d="M97.5444 47.411L96.7933 64.3615L106.162 64.1078L102.944 51.877L97.5444 47.411Z" fill="#F4A28C"/>
<path d="M100.843 49.7557C100.843 49.7557 100.051 47.9287 98.7218 48.6392C97.3921 49.3497 98.5289 51.9988 100.518 51.471L100.843 49.7557Z" fill="#F4A28C"/>
<path d="M105.593 46.5583L107.694 47.8474C107.812 47.9227 107.908 48.0264 107.975 48.1487C108.042 48.2711 108.077 48.4083 108.077 48.5477C108.077 48.6872 108.042 48.8244 107.975 48.9468C107.908 49.0691 107.812 49.1728 107.694 49.2481L106.01 50.3443L105.593 46.5583Z" fill="#F4A28C"/>
<path opacity="0.31" d="M103.705 54.6784C102.514 54.5193 101.396 54.0147 100.488 53.2269C100.488 53.2269 100.975 56.2719 104.71 58.9515L103.705 54.6784Z" fill="#CE8172"/>
<path d="M97.1384 51.9785L93.5047 45.8073C93.5047 45.8073 90.145 44.7923 91.6066 42.1229C93.0682 39.4534 95.2505 40.6613 96.0828 37.19C96.151 36.5667 96.41 35.9796 96.8244 35.5091C97.2387 35.0385 97.7882 34.7073 98.3979 34.5607C99.0075 34.4141 99.6475 34.4593 100.231 34.6901C100.813 34.9209 101.311 35.326 101.655 35.8502C102.883 37.6467 107.248 35.7081 107.167 38.8952C107.085 42.0823 103.015 43.3815 101.858 43.7469C96.7933 45.3303 103.117 50.8722 97.1384 51.9785Z" fill="#24285B"/>
<path d="M124.726 214.673C124.726 214.673 126.107 218.499 129.558 218.794C133.009 219.088 133.922 222.458 130.816 223.341C127.71 224.224 119.651 220.225 119.651 220.225L119.874 215.241L124.726 214.673Z" fill="#015ADC"/>
<path d="M77.9346 214.673C77.9346 214.673 76.5542 218.499 73.1032 218.794C69.6522 219.088 68.7387 222.458 71.8446 223.341C74.9505 224.224 83.0096 220.225 83.0096 220.225L82.7863 215.241L77.9346 214.673Z" fill="#015ADC"/>
<path d="M119.062 59.3982C103.675 59.6832 88.4877 62.933 74.3314 68.9696C72.161 69.8886 70.2019 71.2426 68.575 72.9479C66.948 74.6532 65.6877 76.6738 64.8717 78.8849C64.0557 81.0961 63.7013 83.451 63.8305 85.8044C63.9597 88.1578 64.5696 90.4598 65.6227 92.5684L89.9827 141.116L135.11 138.446C135.11 138.446 143.321 111.163 141.677 80.297C141.344 74.5642 138.802 69.1836 134.585 65.2862C130.368 61.3888 124.804 59.2782 119.062 59.3982Z" fill="#015ADC"/>
<path d="M89.9725 141.106L76.4933 215.353H83.2329L100.133 175.047C106.119 160.772 116.671 148.885 130.136 141.248L135.099 138.436L89.9725 141.106Z" fill="#24285B"/>
<path d="M135.099 138.446L128.137 215.363H119.174C119.174 215.363 121.265 157.508 105.096 145.166L135.099 138.446Z" fill="#24285B"/>
<path opacity="0.08" d="M86.9884 72.5322C86.9884 72.5322 98.5087 79.9417 94.8851 102.728C93.8256 109.39 94.2545 116.203 96.1411 122.679C98.0276 129.154 101.325 135.132 105.796 140.182L89.9725 141.116C89.9725 141.116 79.8225 119.973 77.1226 115.487C74.4227 111.001 86.9884 72.5322 86.9884 72.5322Z" fill="black"/>
<path d="M89.3229 79.4342C89.3737 69.1116 76.473 64.3513 69.571 72.0247C63.549 78.552 59.7104 86.7934 58.5887 95.6031C55.8381 118.268 58.8628 167.749 58.8628 167.749H67.064C67.064 167.749 72.6058 118.299 84.7046 95.6031C88.0744 89.2797 89.3026 83.9002 89.3229 79.4342Z" fill="#015ADC"/>
<path opacity="0.46" d="M89.3229 79.4342C89.3737 69.1116 76.473 64.3513 69.571 72.0247C63.549 78.552 59.7104 86.7934 58.5887 95.6031C55.8381 118.268 58.8628 167.749 58.8628 167.749H67.064C67.064 167.749 72.6058 118.299 84.7046 95.6031C88.0744 89.2797 89.3026 83.9002 89.3229 79.4342Z" fill="white"/>
<path d="M55.9396 182.041V178.539C55.9396 177.268 56.4443 176.05 57.3428 175.151C58.2412 174.253 59.4598 173.748 60.7304 173.748H65.2674C66.538 173.748 67.7566 174.253 68.655 175.151C69.5535 176.05 70.0582 177.268 70.0582 178.539V182.294" stroke="#24285B" stroke-width="2.03" stroke-miterlimit="10"/>
<path d="M91.2108 190.871H35.8324V202.939H91.2108V190.871Z" fill="#FFD200"/>
<path opacity="0.08" d="M91.2108 190.871H35.8324V202.939H91.2108V190.871Z" fill="black"/>
<path d="M84.4509 180.66L91.2108 190.871H35.8324L42.6024 180.66H84.4509Z" fill="#FFD200"/>
<path d="M60.2837 167.749C60.2837 167.749 57.8274 175.92 61.0653 175.92C64.3031 175.92 68.1703 177.473 65.7241 167.749H60.2837Z" fill="#F4A28C"/>
<path d="M282.994 169.777L279.319 168.746L265.212 219.037L268.886 220.068L282.994 169.777Z" fill="#E6E6E6"/>
<path d="M284.771 171.728C284.48 171.725 284.191 171.688 283.909 171.617L277.747 169.881C276.937 169.651 276.251 169.11 275.838 168.376C275.425 167.642 275.32 166.775 275.545 165.963L276.793 161.527C276.906 161.125 277.096 160.75 277.354 160.421C277.612 160.093 277.932 159.819 278.296 159.614C278.66 159.41 279.06 159.279 279.475 159.229C279.889 159.18 280.309 159.212 280.711 159.325L286.872 161.05C287.276 161.164 287.653 161.356 287.982 161.615C288.311 161.875 288.586 162.197 288.791 162.563C288.997 162.926 289.128 163.327 289.177 163.742C289.225 164.157 289.191 164.577 289.075 164.978L287.837 169.414C287.647 170.081 287.245 170.667 286.692 171.085C286.139 171.502 285.464 171.728 284.771 171.728ZM284.446 169.698C284.598 169.741 284.757 169.754 284.914 169.736C285.071 169.717 285.223 169.668 285.361 169.59C285.498 169.513 285.619 169.409 285.717 169.285C285.814 169.16 285.886 169.018 285.928 168.866L287.177 164.43C287.261 164.123 287.221 163.796 287.065 163.518C286.91 163.241 286.651 163.036 286.345 162.948L280.173 161.223C280.022 161.18 279.864 161.167 279.707 161.186C279.551 161.204 279.4 161.254 279.263 161.331C279.127 161.409 279.006 161.513 278.91 161.637C278.813 161.761 278.743 161.903 278.702 162.055L277.453 166.481C277.41 166.632 277.397 166.79 277.416 166.946C277.435 167.103 277.484 167.254 277.562 167.391C277.639 167.527 277.743 167.648 277.867 167.744C277.991 167.841 278.134 167.911 278.285 167.952L284.446 169.698Z" fill="#C9C9C9"/>
<path d="M275.931 222.539L278.976 211.597L260.706 206.461L257.498 217.9C257.074 219.413 257.032 221.007 257.376 222.539H275.931Z" fill="#C9C9C9"/>
<path d="M184.621 142.598H176.268V222.001H184.621V142.598Z" fill="#015ADC"/>
<path d="M229.758 142.598H221.405V222.001H229.758V142.598Z" fill="#015ADC"/>
<path opacity="0.08" d="M184.621 142.598H176.268V222.001H184.621V142.598Z" fill="black"/>
<path opacity="0.08" d="M229.758 142.598H221.405V222.001H229.758V142.598Z" fill="black"/>
<path d="M239.675 152.453H166.382V178.305H239.675V152.453Z" fill="#015ADC"/>
<path d="M170.097 152.453L178.856 178.305H190.975L181.018 152.453H170.097Z" fill="#24285B"/>
<path d="M192.528 152.453L201.288 178.305H213.407L203.449 152.453H192.528Z" fill="#24285B"/>
<path d="M214.899 152.453L223.648 178.305H235.767L225.81 152.453H214.899Z" fill="#24285B"/>
<path d="M239.675 188.1H166.382V200.219H239.675V188.1Z" fill="#015ADC"/>
<path opacity="0.08" d="M219.964 152.453L239.675 171.474V162.421L219.964 152.453Z" fill="black"/>
<path d="M90.6424 42.0517L108.192 39.6766C108.328 39.6564 108.456 39.5956 108.558 39.5021C108.659 39.4086 108.731 39.2868 108.762 39.1523C108.794 39.0178 108.785 38.8769 108.736 38.7478C108.686 38.6187 108.599 38.5074 108.486 38.4282L107.735 37.9105C106.877 37.3342 106.27 36.4521 106.04 35.4441C105.38 32.7137 103.421 27.2124 98.1636 26.9891C91.4443 26.6948 84.8163 31.7292 88.8357 41.0266C88.9833 41.3715 89.2399 41.6586 89.5663 41.8438C89.8926 42.0289 90.2706 42.102 90.6424 42.0517Z" fill="#FFD200"/>
<path opacity="0.31" d="M89.1199 35.9212C89.0969 34.7296 89.353 33.5491 89.8676 32.474C90.3822 31.399 91.1411 30.4592 92.0837 29.7297C92.1818 29.6629 92.2989 29.6297 92.4175 29.6351C92.536 29.6405 92.6496 29.6843 92.7412 29.7598C92.8327 29.8354 92.8973 29.9386 92.9251 30.0539C92.953 30.1693 92.9427 30.2906 92.8957 30.3996C92.049 32.143 91.5787 34.045 91.5153 35.9821C91.5063 36.2606 91.3997 36.527 91.2142 36.7348C91.0286 36.9426 90.7759 37.0786 90.5003 37.1189C90.3284 37.1455 90.1528 37.1342 89.9857 37.0861C89.8186 37.0379 89.664 36.9539 89.5326 36.8399C89.4012 36.7259 89.2963 36.5847 89.225 36.426C89.1537 36.2674 89.1178 36.0951 89.1199 35.9212Z" fill="white"/>
<path d="M253.865 80.8654C253.873 79.4946 253.58 78.1386 253.007 76.8932C252.435 75.6477 251.595 74.5432 250.549 73.6575C249.503 72.7719 248.275 72.1266 246.952 71.7673C245.629 71.408 244.243 71.3435 242.892 71.5781C241.808 69.56 240.198 67.8733 238.232 66.6973C236.266 65.5214 234.018 64.9 231.727 64.8994H231.261C231.831 62.6733 231.885 60.3461 231.418 58.0959C230.952 55.8457 229.977 53.732 228.568 51.9164C227.159 50.1008 225.353 48.6315 223.289 47.6207C221.226 46.6098 218.958 46.0844 216.66 46.0844C214.362 46.0844 212.094 46.6098 210.03 47.6207C207.966 48.6315 206.161 50.1008 204.752 51.9164C203.343 53.732 202.368 55.8457 201.901 58.0959C201.434 60.3461 201.488 62.6733 202.059 64.8994H201.592C198.227 64.8994 195 66.2362 192.621 68.6155C190.241 70.9949 188.905 74.222 188.905 77.5869C188.905 80.9519 190.241 84.179 192.621 86.5584C195 88.9377 198.227 90.2744 201.592 90.2744H245.643V90.1932C247.913 89.9044 250.001 88.7979 251.514 87.0809C253.027 85.3639 253.863 83.1541 253.865 80.8654Z" fill="#E6E6E6"/>
<path d="M13.1066 50.5981C13.1173 48.7558 13.8567 46.9926 15.1632 45.6937C16.4698 44.3947 18.2373 43.6656 20.0796 43.6657C20.4568 43.6699 20.8333 43.7004 21.2063 43.757C22.0106 42.261 23.2056 41.0111 24.6642 40.1406C26.1227 39.2701 27.7901 38.8116 29.4887 38.814H29.8338C29.6049 37.9323 29.4889 37.025 29.4887 36.1141C29.4755 34.5252 29.8016 32.9518 30.4452 31.499C31.0888 30.0462 32.0351 28.7476 33.2208 27.6898C34.4065 26.6321 35.8044 25.8396 37.3209 25.3653C38.8374 24.8911 40.4377 24.746 42.0148 24.9398C43.5919 25.1335 45.1095 25.6617 46.4661 26.489C47.8227 27.3162 48.9871 28.4235 49.8815 29.7368C50.7759 31.0501 51.3797 32.5393 51.6525 34.1046C51.9253 35.67 51.8608 37.2755 51.4634 38.814H51.8085C53.0428 38.814 54.265 39.0571 55.4053 39.5294C56.5456 40.0018 57.5818 40.6941 58.4545 41.5669C59.3273 42.4396 60.0196 43.4757 60.492 44.6161C60.9643 45.7564 61.2074 46.9786 61.2074 48.2129C61.2074 49.4472 60.9643 50.6694 60.492 51.8097C60.0196 52.95 59.3273 53.9861 58.4545 54.8589C57.5818 55.7317 56.5456 56.424 55.4053 56.8963C54.265 57.3687 53.0428 57.6118 51.8085 57.6118H19.1763V57.5509C17.4919 57.3286 15.9464 56.5 14.8291 55.2202C13.7118 53.9403 13.0994 52.297 13.1066 50.5981Z" fill="#E6E6E6"/>
<path d="M89.6274 142.872C89.6274 142.872 95.078 113.904 95.078 97.8971C95.078 74.2374 86.5114 64.1382 86.5114 64.1382L90.0639 63.0014C90.0639 63.0014 97.4937 75.1103 109.704 72.5322C121.072 70.147 118.19 59.1139 118.139 58.9515H121.427C121.427 58.9515 132.024 67.6196 134.511 81.5759C138.733 105.225 135.069 138.416 135.069 138.416L89.6274 142.872Z" fill="#24285B"/>
<path d="M134.541 138.446H86.1358V144.577H134.541V138.446Z" fill="#C9C9C9"/>
<path d="M91.7792 135.259H86.2475C85.0647 135.259 84.1058 136.218 84.1058 137.401V147.49C84.1058 148.673 85.0647 149.632 86.2475 149.632H91.7792C92.962 149.632 93.9209 148.673 93.9209 147.49V137.401C93.9209 136.218 92.962 135.259 91.7792 135.259Z" fill="#FFD200"/>
<path opacity="0.46" d="M91.7792 135.259H86.2475C85.0647 135.259 84.1058 136.218 84.1058 137.401V140.03C84.1058 141.213 85.0647 142.171 86.2475 142.171H91.7792C92.962 142.171 93.9209 141.213 93.9209 140.03V137.401C93.9209 136.218 92.962 135.259 91.7792 135.259Z" fill="white"/>
<path d="M89.0184 140.04C89.7752 140.04 90.3887 139.426 90.3887 138.67C90.3887 137.913 89.7752 137.299 89.0184 137.299C88.2617 137.299 87.6482 137.913 87.6482 138.67C87.6482 139.426 88.2617 140.04 89.0184 140.04Z" fill="#24285B"/>
<path d="M103.36 135.259H97.8286C96.6458 135.259 95.687 136.218 95.687 137.401V147.49C95.687 148.673 96.6458 149.632 97.8286 149.632H103.36C104.543 149.632 105.502 148.673 105.502 147.49V137.401C105.502 136.218 104.543 135.259 103.36 135.259Z" fill="#FFD200"/>
<path opacity="0.46" d="M103.36 135.259H97.8286C96.6458 135.259 95.687 136.218 95.687 137.401V140.03C95.687 141.213 96.6458 142.171 97.8286 142.171H103.36C104.543 142.171 105.502 141.213 105.502 140.03V137.401C105.502 136.218 104.543 135.259 103.36 135.259Z" fill="white"/>
<path d="M100.589 140.04C101.346 140.04 101.96 139.426 101.96 138.67C101.96 137.913 101.346 137.299 100.589 137.299C99.8327 137.299 99.2192 137.913 99.2192 138.67C99.2192 139.426 99.8327 140.04 100.589 140.04Z" fill="#24285B"/>
<path d="M134.247 135.259H128.715C127.532 135.259 126.573 136.218 126.573 137.401V147.49C126.573 148.673 127.532 149.632 128.715 149.632H134.247C135.43 149.632 136.388 148.673 136.388 147.49V137.401C136.388 136.218 135.43 135.259 134.247 135.259Z" fill="#FFD200"/>
<path opacity="0.46" d="M134.247 135.259H128.715C127.532 135.259 126.573 136.218 126.573 137.401V140.03C126.573 141.213 127.532 142.171 128.715 142.171H134.247C135.43 142.171 136.388 141.213 136.388 140.03V137.401C136.388 136.218 135.43 135.259 134.247 135.259Z" fill="white"/>
<path d="M131.476 140.04C132.233 140.04 132.846 139.426 132.846 138.67C132.846 137.913 132.233 137.299 131.476 137.299C130.719 137.299 130.106 137.913 130.106 138.67C130.106 139.426 130.719 140.04 131.476 140.04Z" fill="#24285B"/>
<path d="M161.236 218.032C161.236 218.032 164.971 212.653 159.388 211.171C153.806 209.689 160.738 202.442 155.542 201.488C150.345 200.534 151.218 208.197 151.218 208.197C151.218 208.197 147.635 205.152 145.128 207.71C142.621 210.268 146.143 213.15 146.143 213.15C146.143 213.15 141.139 214.876 144.255 218.032H161.236Z" fill="#E6E6E6"/>
<path d="M153.735 218.743C153.735 218.743 156.11 214.683 159.602 215.18C160.045 215.196 160.481 215.303 160.882 215.493C161.282 215.683 161.64 215.954 161.933 216.287C162.226 216.621 162.447 217.011 162.584 217.433C162.721 217.855 162.769 218.301 162.728 218.743H153.735Z" fill="#C9C9C9"/>
<path opacity="0.2" d="M131.029 100.262C131.029 100.262 109.379 101.653 102.843 100.262L101.96 117.994C101.96 117.994 123.742 121.039 130.106 118.725L131.029 100.262Z" fill="white"/>
</svg>
