<svg width="138" height="16" viewBox="0 0 138 16" fill="none" xmlns="http://www.w3.org/2000/svg">
<path d="M10.2734 6.11328C10.2083 5.4362 9.95443 4.89909 9.51172 4.50195C9.07552 4.10482 8.48958 3.90625 7.75391 3.90625C6.77734 3.90625 6.02214 4.26107 5.48828 4.9707C4.95443 5.67383 4.6875 6.66016 4.6875 7.92969C4.6875 9.23828 4.95117 10.2344 5.47852 10.918C6.01237 11.6016 6.76432 11.9466 7.73438 11.9531C8.44401 11.9466 9.01693 11.7676 9.45312 11.416C9.89583 11.0579 10.1693 10.5599 10.2734 9.92188L14.043 9.96094C13.9714 10.8138 13.6784 11.6439 13.1641 12.4512C12.6562 13.252 11.9303 13.9095 10.9863 14.4238C10.0488 14.9382 8.9388 15.1953 7.65625 15.1953C6.34766 15.1953 5.17904 14.9121 4.15039 14.3457C3.12826 13.7793 2.32422 12.9492 1.73828 11.8555C1.15234 10.7617 0.859375 9.45312 0.859375 7.92969C0.859375 6.40625 1.1556 5.09766 1.74805 4.00391C2.34701 2.91016 3.16081 2.08008 4.18945 1.51367C5.2181 0.947266 6.3737 0.664062 7.65625 0.664062C8.83464 0.664062 9.88607 0.878906 10.8105 1.30859C11.735 1.73177 12.4772 2.35352 13.0371 3.17383C13.6035 3.99414 13.9388 4.97396 14.043 6.11328H10.2734ZM29.4336 7.92969C29.4336 9.45312 29.1341 10.7617 28.5352 11.8555C27.9362 12.9492 27.1191 13.7793 26.084 14.3457C25.0488 14.9121 23.8867 15.1953 22.5977 15.1953C21.2956 15.1953 20.127 14.9121 19.0918 14.3457C18.0566 13.7728 17.2396 12.9395 16.6406 11.8457C16.0417 10.752 15.7422 9.44661 15.7422 7.92969C15.7422 6.40625 16.0417 5.09766 16.6406 4.00391C17.2396 2.91016 18.0566 2.08008 19.0918 1.51367C20.127 0.947266 21.2956 0.664062 22.5977 0.664062C23.8867 0.664062 25.0488 0.947266 26.084 1.51367C27.1191 2.08008 27.9362 2.91016 28.5352 4.00391C29.1341 5.09766 29.4336 6.40625 29.4336 7.92969ZM19.5703 7.92969C19.5703 9.22526 19.8307 10.2181 20.3516 10.9082C20.8724 11.5983 21.6211 11.9466 22.5977 11.9531C23.5677 11.9466 24.3132 11.5983 24.834 10.9082C25.3548 10.2181 25.612 9.22526 25.6055 7.92969C25.612 6.6276 25.3548 5.63151 24.834 4.94141C24.3132 4.2513 23.5677 3.90625 22.5977 3.90625C21.6211 3.90625 20.8724 4.2513 20.3516 4.94141C19.8307 5.63151 19.5703 6.6276 19.5703 7.92969ZM43.418 15H40.3125L35.0586 7.36328H34.9609V15H31.25V0.859375H34.4141L39.5898 8.45703H39.707V0.859375H43.418V15ZM44.9219 0.859375H57.1094V3.86719H52.8516V15H49.1797V3.86719H44.9219V0.859375ZM58.6133 0.859375H64.6289C65.6771 0.859375 66.5951 1.05143 67.3828 1.43555C68.1771 1.81966 68.7891 2.37305 69.2188 3.0957C69.6484 3.81185 69.8633 4.66146 69.8633 5.64453C69.8633 6.60807 69.6517 7.4349 69.2285 8.125C68.8118 8.80859 68.2161 9.33268 67.4414 9.69727L70.332 15H66.2891L63.7793 10.293H62.3242V15H58.6133V0.859375ZM63.7695 7.38281C65.2474 7.38281 65.9831 6.80339 65.9766 5.64453C65.9831 5.03255 65.7943 4.58008 65.4102 4.28711C65.0326 3.98763 64.4857 3.83464 63.7695 3.82812H62.3242V7.38281H63.7695ZM71.0156 15L75.7227 0.859375H80.7812L85.4688 15H81.4648L80.6152 12.2266H75.8789L75.0391 15H71.0156ZM79.7559 9.41406L78.3008 4.66797H78.1836L76.7383 9.41406H79.7559ZM86.875 0.859375H92.9297C93.9844 0.859375 94.8796 1.00586 95.6152 1.29883C96.3509 1.58529 96.9043 1.99544 97.2754 2.5293C97.653 3.06315 97.8451 3.69141 97.8516 4.41406C97.8516 4.92839 97.7376 5.40039 97.5098 5.83008C97.2819 6.25326 96.9629 6.61133 96.5527 6.9043C96.1426 7.19076 95.6706 7.38932 95.1367 7.5V7.63672C95.7357 7.65625 96.2826 7.80924 96.7773 8.0957C97.2786 8.37565 97.6725 8.76953 97.959 9.27734C98.252 9.77865 98.3984 10.3581 98.3984 11.0156C98.3984 11.7839 98.1966 12.4707 97.793 13.0762C97.3958 13.6751 96.8229 14.1471 96.0742 14.4922C95.3255 14.8307 94.4466 15 93.4375 15H86.875V0.859375ZM92.4805 12.0117C93.1445 12.0182 93.6426 11.8978 93.9746 11.6504C94.3066 11.3965 94.4727 11.0286 94.4727 10.5469C94.4727 10.0391 94.3001 9.64193 93.9551 9.35547C93.61 9.06901 93.138 8.92578 92.5391 8.92578H90.5859V12.0117H92.4805ZM92.2461 6.60156C92.7799 6.60156 93.2096 6.47786 93.5352 6.23047C93.8607 5.98307 94.0234 5.63802 94.0234 5.19531C94.0234 4.7526 93.8639 4.40755 93.5449 4.16016C93.2324 3.91276 92.819 3.78906 92.3047 3.78906H90.5859V6.60156H92.2461ZM99.2969 15L104.004 0.859375H109.062L113.75 15H109.746L108.896 12.2266H104.16L103.32 15H99.2969ZM108.037 9.41406L106.582 4.66797H106.465L105.02 9.41406H108.037ZM122.246 5.23438C122.207 4.7526 122.025 4.38151 121.699 4.12109C121.38 3.86068 120.915 3.73047 120.303 3.73047C119.691 3.73047 119.232 3.83789 118.926 4.05273C118.626 4.26107 118.477 4.54753 118.477 4.91211C118.477 5.25716 118.636 5.53711 118.955 5.75195C119.274 5.96029 119.766 6.13281 120.43 6.26953L121.602 6.54297C123.092 6.86198 124.196 7.38281 124.912 8.10547C125.635 8.82161 126.003 9.73307 126.016 10.8398C126.009 11.7578 125.778 12.5423 125.322 13.1934C124.867 13.8379 124.212 14.3294 123.359 14.668C122.507 15.0065 121.484 15.1758 120.293 15.1758C118.405 15.1693 116.927 14.7461 115.859 13.9062C114.792 13.0599 114.251 11.7904 114.238 10.0977H117.793C117.819 10.7487 118.044 11.2467 118.467 11.5918C118.896 11.9368 119.486 12.1094 120.234 12.1094C120.859 12.1094 121.341 11.9954 121.68 11.7676C122.025 11.5332 122.201 11.224 122.207 10.8398C122.201 10.4948 122.031 10.2148 121.699 10C121.374 9.77865 120.82 9.58333 120.039 9.41406L118.613 9.10156C115.938 8.51562 114.603 7.19401 114.609 5.13672C114.603 4.25781 114.84 3.47982 115.322 2.80273C115.804 2.12565 116.475 1.60156 117.334 1.23047C118.193 0.852865 119.173 0.664062 120.273 0.664062C121.387 0.664062 122.36 0.852865 123.193 1.23047C124.033 1.60807 124.678 2.14193 125.127 2.83203C125.583 3.52214 125.814 4.32292 125.82 5.23438H122.246ZM127.539 0.859375H137.637V3.86719H131.25V6.42578H137.109V9.43359H131.25V11.9922H137.617V15H127.539V0.859375Z" fill="#021226"/>
</svg>
