<svg width="40" height="40" viewBox="0 0 40 40" fill="none" xmlns="http://www.w3.org/2000/svg">
<path d="M38.75 32.5C39.125 32.5 39.375 32.25 39.375 31.875V21.75L36.25 14.4375C35.6875 13.25 34.5 12.5 33.25 12.5H28.875C27.75 12.5 26.875 13.375 26.875 14.5V28.75H17.625C17.25 28.75 17 29 17 29.375C17 29.75 17.25 30 17.625 30H28.5625C28.375 30.375 28.25 30.8125 28.1875 31.25H11.8125C11.75 30.8125 11.625 30.375 11.4375 30H15.0625C15.4375 30 15.6875 29.75 15.6875 29.375C15.6875 29 15.4375 28.75 15.0625 28.75H13.125V26L22.1875 20.5625C22.5 20.375 22.5625 20 22.375 19.6875C22.1875 19.375 21.8125 19.3125 21.5 19.5L13.125 24.5C13.125 24.5 13.25 22.5 12.9375 22.3125L22.875 16.375C23.1875 16.1875 23.5625 16.1875 23.875 16.375C24.1875 16.5625 24.375 16.875 24.375 17.25C24.375 17.625 24.1875 17.9375 23.875 18.125C23.5625 18.3125 23.5 18.6875 23.6875 19C23.875 19.3125 24.25 19.375 24.5625 19.1875C25.25 18.8125 25.625 18.0625 25.625 17.25C25.625 16.4375 25.1875 15.6875 24.5 15.3125C23.8125 14.9375 22.9375 14.9375 22.25 15.3125C22.25 15.3125 12.125 21.4375 12.0625 21.4375C11.8125 21.3125 11.5625 21.25 11.25 21.25H3.6875C2.6875 21.25 1.875 22.0625 1.875 23.0625V28.75H1.25C0.875 28.75 0.625 29 0.625 29.375V31.875C0.625 32.25 0.875 32.5 1.25 32.5H3.1875C3.3125 33.5 3.8125 34.3125 4.4375 35H1.25C0.875 35 0.625 35.25 0.625 35.625C0.625 36 0.875 36.25 1.25 36.25H12.5C12.875 36.25 13.125 36 13.125 35.625C13.125 35.25 12.875 35 12.5 35H10.5625C11.25 34.3125 11.6875 33.5 11.8125 32.5H28.1875C28.3125 33.5 28.8125 34.3125 29.4375 35H27.5C27.125 35 26.875 35.25 26.875 35.625C26.875 36 27.125 36.25 27.5 36.25H38.75C39.125 36.25 39.375 36 39.375 35.625C39.375 35.25 39.125 35 38.75 35H35.5625C36.25 34.3125 36.6875 33.5 36.8125 32.5H38.75ZM3.125 23.0625C3.125 22.75 3.375 22.5 3.6875 22.5H11.25C11.5625 22.5 11.8125 22.75 11.8125 23.0625V28.75H10.5C9.6875 28 8.625 27.5 7.4375 27.5C6.25 27.5 5.1875 28 4.375 28.75H3.125V23.0625ZM3.1875 31.25H1.875V30H3.5625C3.375 30.375 3.25 30.8125 3.1875 31.25ZM7.5 35C5.75 35 4.375 33.625 4.375 31.875C4.375 30.125 5.75 28.75 7.5 28.75C9.25 28.75 10.625 30.125 10.625 31.875C10.625 33.625 9.25 35 7.5 35ZM28.125 28.75V22.5H33.5C33.875 22.5 34.125 22.25 34.125 21.875C34.125 21.5 33.875 21.25 33.5 21.25H28.125V14.5C28.125 14.0625 28.4375 13.75 28.875 13.75H33.25C34.0625 13.75 34.75 14.25 35.125 14.9375L37.8125 21.25H36.25C35.875 21.25 35.625 21.5 35.625 21.875C35.625 22.25 35.875 22.5 36.25 22.5H38.125V23.75H37.5C37.125 23.75 36.875 24 36.875 24.375C36.875 24.75 37.125 25 37.5 25H38.125V26.25H37.5C37.125 26.25 36.875 26.5 36.875 26.875C36.875 27.25 37.125 27.5 37.5 27.5H38.125V28.75H35.5625C34.75 28 33.6875 27.5 32.5 27.5C31.3125 27.5 30.25 28 29.4375 28.75H28.125ZM32.5 35C30.75 35 29.375 33.625 29.375 31.875C29.375 30.125 30.75 28.75 32.5 28.75C34.25 28.75 35.625 30.125 35.625 31.875C35.625 33.625 34.25 35 32.5 35ZM38.125 30V31.25H36.8125C36.75 30.8125 36.625 30.375 36.4375 30H38.125Z" fill="#021226"/>
<path d="M25 35H15C14.625 35 14.375 35.25 14.375 35.625C14.375 36 14.625 36.25 15 36.25H25C25.375 36.25 25.625 36 25.625 35.625C25.625 35.25 25.375 35 25 35Z" fill="#021226"/>
<path d="M7.5 30C6.4375 30 5.625 30.8125 5.625 31.875C5.625 32.9375 6.4375 33.75 7.5 33.75C7.875 33.75 8.125 33.5 8.125 33.125C8.125 32.75 7.875 32.5 7.5 32.5C7.125 32.5 6.875 32.25 6.875 31.875C6.875 31.5 7.125 31.25 7.5 31.25C7.875 31.25 8.125 31.5 8.125 31.875C8.125 32.25 8.375 32.5 8.75 32.5C9.125 32.5 9.375 32.25 9.375 31.875C9.375 30.8125 8.5625 30 7.5 30Z" fill="#021226"/>
<path d="M32.5 30C32.125 30 31.875 30.25 31.875 30.625C31.875 31 32.125 31.25 32.5 31.25C32.875 31.25 33.125 31.5 33.125 31.875C33.125 32.25 32.875 32.5 32.5 32.5C32.125 32.5 31.875 32.25 31.875 31.875C31.875 31.5 31.625 31.25 31.25 31.25C30.875 31.25 30.625 31.5 30.625 31.875C30.625 32.9375 31.4375 33.75 32.5 33.75C33.5625 33.75 34.375 32.9375 34.375 31.875C34.375 30.8125 33.5625 30 32.5 30Z" fill="#021226"/>
<path d="M31.6875 16.4375C31.4375 16.1875 31.0625 16.1875 30.8125 16.4375L29.5625 17.6875C29.3125 17.9375 29.3125 18.3125 29.5625 18.5625C29.8125 18.875 30.3125 18.6875 30.4375 18.5625L31.6875 17.3125C31.9375 17.0625 31.9375 16.6875 31.6875 16.4375Z" fill="#021226"/>
<path d="M34.1875 16.4375C33.9375 16.1875 33.5625 16.1875 33.3125 16.4375L32.0625 17.6875C31.8125 17.9375 31.8125 18.3125 32.0625 18.5625C32.1875 18.6875 32.6875 18.8125 32.9375 18.5625L34.1875 17.3125C34.4375 17.0625 34.4375 16.6875 34.1875 16.4375Z" fill="#021226"/>
<path d="M30 25H31.25C31.625 25 31.875 24.75 31.875 24.375C31.875 24 31.625 23.75 31.25 23.75H30C29.625 23.75 29.375 24 29.375 24.375C29.375 24.75 29.625 25 30 25Z" fill="#021226"/>
<path d="M3.6875 15H8.75C9.125 15 9.375 14.75 9.375 14.375C9.375 14 9.125 13.75 8.75 13.75H3.6875C3.375 13.75 3.125 13.5 3.125 13.1875V7.5H11.875V13.1875C11.875 13.5 11.625 13.75 11.3125 13.75C10.9375 13.75 10.6875 14 10.6875 14.375C10.6875 14.75 10.9375 15 11.3125 15C11.8125 15 12.25 14.8125 12.5625 14.5L17.3125 16.875C17.375 16.9375 17.9375 17.0625 18.125 16.625C18.25 16.3125 18.125 15.9375 17.875 15.8125L13.125 13.375C13.125 13.3125 13.125 11.6875 13.125 11.6875L20.1875 15.25C20.25 15.3125 20.6875 15.5 21 15C21.1875 14.6875 21 14.3125 20.75 14.1875L13.125 10.25V4.375C13.125 4 12.875 3.75 12.5 3.75H6.875C6.5 3.75 6.25 4 6.25 4.375C6.25 4.75 6.5 5 6.875 5H11.875V6.25H3.125V5H4.5C4.875 5 5.125 4.75 5.125 4.375C5.125 4 4.875 3.75 4.5 3.75H2.5C2.125 3.75 1.875 4 1.875 4.375V13.1875C1.875 14.1875 2.6875 15 3.6875 15Z" fill="#021226"/>
<path d="M5 26.25C5.375 26.25 5.625 26 5.625 25.625V25H6.25C6.625 25 6.875 24.75 6.875 24.375C6.875 24 6.625 23.75 6.25 23.75H5C4.625 23.75 4.375 24 4.375 24.375V25.625C4.375 26 4.625 26.25 5 26.25Z" fill="#021226"/>
<path d="M8.75 25H10C10.375 25 10.625 24.75 10.625 24.375C10.625 24 10.375 23.75 10 23.75H8.75C8.375 23.75 8.125 24 8.125 24.375C8.125 24.75 8.375 25 8.75 25Z" fill="#021226"/>
</svg>
